<svg width="1200" height="700" viewBox="0 0 1200 700" fill="none" xmlns="http://www.w3.org/2000/svg">
  <rect width="1200" height="700" fill="#EDF5E5"/>
  <rect x="36" y="36" width="1128" height="628" rx="26" fill="#FFFFFF"/>
  <rect x="72" y="72" width="210" height="36" rx="18" fill="#E5F0DA"/>
  <rect x="88" y="84" width="120" height="12" rx="6" fill="#3A7146"/>
  <rect x="72" y="144" width="248" height="486" rx="20" fill="#F7FBF2"/>
  <rect x="332" y="144" width="248" height="486" rx="20" fill="#F7FBF2"/>
  <rect x="592" y="144" width="248" height="486" rx="20" fill="#F7FBF2"/>
  <rect x="852" y="144" width="248" height="486" rx="20" fill="#F7FBF2"/>
  <rect x="92" y="174" width="120" height="14" rx="7" fill="#638C5A"/>
  <rect x="352" y="174" width="120" height="14" rx="7" fill="#638C5A"/>
  <rect x="612" y="174" width="120" height="14" rx="7" fill="#638C5A"/>
  <rect x="872" y="174" width="120" height="14" rx="7" fill="#638C5A"/>
  <rect x="92" y="214" width="208" height="106" rx="14" fill="#E8F2DE"/>
  <rect x="92" y="334" width="208" height="106" rx="14" fill="#E8F2DE"/>
  <rect x="352" y="214" width="208" height="106" rx="14" fill="#E8F2DE"/>
  <rect x="352" y="334" width="208" height="106" rx="14" fill="#E8F2DE"/>
  <rect x="612" y="214" width="208" height="106" rx="14" fill="#DDEED1"/>
  <rect x="612" y="334" width="208" height="106" rx="14" fill="#DDEED1"/>
  <rect x="872" y="214" width="208" height="106" rx="14" fill="#D3E8C4"/>
</svg>
