<svg width="800" height="420" viewBox="0 0 800 420" fill="none" xmlns="http://www.w3.org/2000/svg">
  <rect width="800" height="420" rx="22" fill="#E5EFE0"/>
  <rect x="100" y="140" width="140" height="100" rx="16" fill="#FFFFFF" stroke="#4C7F49" stroke-width="2"/>
  <rect x="330" y="140" width="140" height="100" rx="16" fill="#3F7042" fill-opacity="0.92"/>
  <rect x="560" y="140" width="140" height="100" rx="16" fill="#FFFFFF" stroke="#4C7F49" stroke-width="2"/>
  <path d="M240 190 H310 M470 190 H540" stroke="#8AA27A" stroke-width="3" stroke-linecap="round"/>
  <polygon points="318,190 306,182 306,198" fill="#5CA666"/>
  <polygon points="548,190 536,182 536,198" fill="#5CA666"/>
  <rect x="120" y="168" width="100" height="12" rx="4" fill="#A6BE98"/>
  <rect x="352" y="176" width="96" height="28" rx="8" fill="#CFE1C3"/>
  <rect x="580" y="168" width="100" height="12" rx="4" fill="#A6BE98"/>
  <rect x="240" y="300" width="320" height="44" rx="12" fill="#DCECCF"/>
  <rect x="260" y="314" width="180" height="16" rx="6" fill="#2F6A3F" fill-opacity="0.4"/>
</svg>
